<?xml version="1.0" encoding="UTF-8"?>
<svg id="Layer_1" data-name="Layer 1" xmlns="http://www.w3.org/2000/svg" viewBox="0 0 513 513">
  <defs>
    <style>
      .cls-1 {
        fill: #27aae1;
        stroke: #231f20;
        stroke-miterlimit: 10;
      }
    </style>
  </defs>
  <path class="cls-1" d="M.5.5v512h512V.5H.5ZM354.16,212.97c-5.41,18.21-12.8,74.81-29.53,103.84-4.48,7.78-11.66,16.55-21.81,24.87-10.68,9.6-24.54,17.89-41.96,24.17-1.86,3.82-91.62,19.09-113.56,4.66-.12-.02-.23-.04-.35-.06,0,0,.09,0,.24-.01-.32-.21-.62-.43-.91-.65,0,0,2.57,0,6.9-.29,16.7-3.69,62.78-21.46,86.29-106.33.06-.2.12-.39.17-.59-16.68-20.76-45.47-34.14-69.74-30.59-43.8,6.4-70.87,9.35-95.97,23.62,0,0,51.18-76.78,153.55-77.76,21.19-.2,40.3,5.84,56.2,15.94,41.56-31.75,95.55-25.31,111.8-8.38,0,0-35.93,9.35-41.34,27.56Z"/>
</svg>